<?xml version="1.0" standalone="no"?>
<svg xmlns="http://www.w3.org/2000/svg" viewBox="0 0 131.2 26.265" width="131.2" height="26.265"><path fill="#0019ff" fill-rule="nonzero" d="M12.84 12.19L12.84 12.19Q12.84 14.62 11.06 16.00Q9.29 17.38 6.53 17.38L6.53 17.38Q4.34 17.38 2.30 16.18L2.30 16.18Q1.30 15.55 0.65 14.41Q0 13.27 0 11.81L0 11.81L3.02 11.66Q3.02 12.96 4.13 13.68Q5.23 14.40 6.58 14.40L6.58 14.40Q9.58 14.40 9.58 12.29L9.58 12.29Q9.58 10.56 7.54 10.25L7.54 10.25L4.75 9.96Q2.66 9.65 1.44 8.47Q0.22 7.30 0.22 5.09Q0.22 2.88 1.97 1.44Q3.72 0 6.40 0Q9.07 0 10.70 1.36Q12.34 2.71 12.34 4.85L12.34 4.85L9.36 4.99Q8.95 2.90 6.55 2.90L6.55 2.90Q5.09 2.90 4.26 3.53Q3.43 4.15 3.43 5.00Q3.43 5.86 4.03 6.35Q4.63 6.84 5.52 6.96L5.52 6.96L8.26 7.25Q12.84 7.87 12.84 12.19ZM25.51 3.53L25.51 17.23L23.18 17.23L22.46 15.60L18.62 17.38Q17.02 17.38 15.83 16.19Q14.64 15 14.64 12.72L14.64 12.72L14.64 3.53L17.76 3.53L17.76 12.05Q17.76 14.33 19.58 14.33L19.58 14.33L22.39 12.82L22.39 3.53L25.51 3.53ZM36.29 3.58L36.29 3.58L35.42 6.65Q35.06 6.50 34.61 6.50L34.61 6.50Q33.41 6.50 31.66 7.54L31.66 7.54L31.66 17.23L28.54 17.23L28.54 3.53L30.86 3.53L31.58 4.73L34.90 3.36Q35.14 3.34 35.54 3.34Q35.95 3.34 36.29 3.58ZM45.07 3.53L48.36 3.53L43.78 17.23L41.33 17.23L36.72 3.53L40.01 3.53L42.55 12.46L45.07 3.53ZM57.94 1.58L63.41 17.23L59.93 17.23L58.97 14.28L53.23 14.28L52.30 17.23L48.82 17.23L54.29 1.58Q54.65 0.77 55.09 0.46Q55.54 0.14 56.18 0.14Q56.83 0.14 57.23 0.43Q57.62 0.72 57.94 1.58L57.94 1.58ZM54.07 11.47L58.20 11.47L56.18 4.70L54.07 11.47ZM76.55 1.62Q78.02 3.10 78.02 5.95Q78.02 8.81 76.55 10.28Q75.07 11.76 72.38 11.76L72.38 11.76L69.10 11.76L69.10 17.23L65.76 17.23L65.76 0.14L72.38 0.14Q75.07 0.14 76.55 1.62ZM74.69 5.95L74.69 5.95Q74.69 3.12 72.22 3.12L72.22 3.12L69.10 3.12L69.10 8.76L72.22 8.76Q73.42 8.76 74.05 8.11Q74.69 7.46 74.69 5.95ZM84.17 0.14L84.17 17.23L80.83 17.23L80.83 0.14L84.17 0.14Z" transform="translate(0, 4.445)"></path><line x1="93.168" y1="2%" x2="93.168" y2="98%" stroke="#0019ff" stroke-linecap="round"></line><g fill="#72edca" color="#72edca" transform="translate(102.168 0) scale(0.5471699)"><svg width="53.0" height="48.0" x="0.0" y="0.0" viewBox="0 0 53 48"><path fill="currentColor" fill-rule="evenodd" d="M14.18 0L0 8.432v16.864l14.18 8.435L24 27.846v11.72L38.181 48l14.181-8.434V22.704l-14.181-8.433-9.818 5.883V8.432L14.18 0zM4.364 22.814V10.915l9.817-5.84L24 10.915v11.853l-9.819 5.885-9.817-5.839zm23.999 14.27V25.23l9.818-5.884 9.818 5.837v11.9L38.18 42.92l-9.818-5.837z"></path></svg></g></svg>